HIERARCHY
ROOT Hips
{
	OFFSET -0.179506 -22.333345 2.821913
	CHANNELS 6 Xposition Yposition Zposition Zrotation Yrotation Xrotation 
	JOINT LeftUpLeg
	{
		OFFSET 6.951974 -9.140623 -0.681533
		CHANNELS 3 Zrotation Yrotation Xrotation
		JOINT LeftLeg
		{
			OFFSET 3.427654 -37.519855 -0.449580
			CHANNELS 3 Zrotation Yrotation Xrotation
			JOINT LeftFoot
			{
				OFFSET -1.359570 -39.796059 -4.369333
				CHANNELS 3 Zrotation Yrotation Xrotation
				JOINT LeftToe
				{
					OFFSET 2.635814 -5.579078 11.928840
					CHANNELS 3 Zrotation Yrotation Xrotation
					End Site
					{
						OFFSET 0.000000 0.000000 0.000000
					}
				}
			}
		}
	}
	JOINT RightUpLeg
	{
		OFFSET -6.767048 -9.052170 -0.431982
		CHANNELS 3 Zrotation Yrotation Xrotation
		JOINT RightLeg
		{
			OFFSET -3.829005 -38.256897 -0.885003
			CHANNELS 3 Zrotation Yrotation Xrotation
			JOINT RightFoot
			{
				OFFSET 1.577377 -39.841461 -4.231180
				CHANNELS 3 Zrotation Yrotation Xrotation
				JOINT RightToe
				{
					OFFSET -2.537174 -4.814398 12.334795
					CHANNELS 3 Zrotation Yrotation Xrotation
					End Site
					{
						OFFSET 0.000000 0.000000 0.000000
					}
				}
			}
		}
	}
	JOINT Spine
	{
		OFFSET -0.253288 10.896323 -2.669631
		CHANNELS 3 Zrotation Yrotation Xrotation
		JOINT Spine1
		{
			OFFSET 0.548704 13.518043 0.109247
			CHANNELS 3 Zrotation Yrotation Xrotation
			JOINT Spine2
			{
				OFFSET 0.145701 5.292222 2.542457
				CHANNELS 3 Zrotation Yrotation Xrotation
				JOINT Neck
				{
					OFFSET -0.277840 21.387037 -4.285703
					CHANNELS 3 Zrotation Yrotation Xrotation
					JOINT Head
					{
						OFFSET 0.515184 6.496960 5.134897
						CHANNELS 3 Zrotation Yrotation Xrotation
						End Site
						{
							OFFSET 0.000000 0.000000 0.000000
						}
					}
				}
				JOINT LeftShoulder
				{
					OFFSET 7.884473 12.174932 -3.408961
					CHANNELS 3 Zrotation Yrotation Xrotation
					JOINT LeftArm
					{
						OFFSET 9.097692 3.046888 -0.886815
						CHANNELS 3 Zrotation Yrotation Xrotation
						JOINT LeftForeArm
						{
							OFFSET 25.961220 -1.277207 -2.745643
							CHANNELS 3 Zrotation Yrotation Xrotation
							JOINT LeftHand
							{
								OFFSET 24.923361 0.898606 -0.117091
								CHANNELS 3 Zrotation Yrotation Xrotation
								End Site
								{
									OFFSET 0.000000 0.000000 0.000000
								}
							}
						}
					}
				}
				JOINT RightShoulder
				{
					OFFSET -8.175920 11.883285 -3.861528
					CHANNELS 3 Zrotation Yrotation Xrotation
					JOINT RightArm
					{
						OFFSET -9.601238 3.255117 -0.914307
						CHANNELS 3 Zrotation Yrotation Xrotation
						JOINT RightForeArm
						{
							OFFSET -25.374195 -1.332924 -2.140099
							CHANNELS 3 Zrotation Yrotation Xrotation
							JOINT RightHand
							{
								OFFSET -25.529810 0.777228 -0.555919
								CHANNELS 3 Zrotation Yrotation Xrotation
								End Site
								{
									OFFSET 0.000000 0.000000 0.000000
								}
							}
						}
					}
				}
			}
		}
	}
}
MOTION
Frames: 9
Frame Time: 0.033333
-63.551899 187.931915 86.669640 -101.315200 1.316630 86.966889 24.444136 4.646947 -6.544141 -6.370585 -7.163836 25.248704 -1.547501 4.551372 -26.551737 nan nan nan -22.115457 -10.692547 -27.244064 2.494514 -8.737986 40.967136 7.443390 0.316773 -19.248182 nan nan nan -5.382334 -2.241893 10.803205 3.840563 -6.426846 4.599955 0.109296 -1.748474 2.150750 3.284331 -6.237288 20.399801 12.695413 -10.756780 11.102302 -11.079680 -11.339718 -0.839999 -68.414086 -43.606357 30.398770 136.594205 -66.831880 -108.981250 -0.031238 -18.793606 -13.612306 9.670527 1.084073 -2.735321 48.558626 6.281056 -3.782034 -147.066402 54.752621 -132.737617 16.581473 17.933851 -26.578629 
-63.554146 187.263840 86.858009 -102.000846 1.466565 87.010006 24.098376 4.849404 -6.524256 -6.198973 -6.537718 25.508673 -1.304385 4.733935 -26.675370 nan nan nan -21.966910 -10.441057 -27.218801 2.312466 -8.489546 39.859319 7.724525 0.311655 -18.060951 nan nan nan -5.388898 -2.335182 10.579921 4.026829 -6.448360 4.871605 0.206423 -1.577249 1.884894 3.200642 -6.560664 20.474610 12.568775 -10.627245 11.220036 -11.211871 -11.597864 -0.541467 -68.259566 -43.931529 30.204948 136.524037 -66.947823 -108.538691 -0.146911 -19.039501 -13.392366 9.593369 1.145908 -2.640181 47.726039 6.803821 -4.731295 -146.694453 54.345504 -131.876928 16.128071 17.522052 -24.927325 
-63.593246 186.590378 87.052277 -102.605520 1.579811 87.000975 23.727074 5.017784 -6.408657 -6.052245 -5.997180 25.573401 -1.103966 4.875266 -26.717485 nan nan nan -21.896680 -10.313355 -27.040685 2.184372 -8.263508 38.634768 7.934690 0.380875 -16.796486 nan nan nan -5.444545 -2.453017 10.334836 4.213311 -6.608522 5.101053 0.331206 -1.516167 1.724453 3.021629 -6.824436 20.757924 12.461511 -10.385132 11.141486 -11.317693 -12.073782 -0.061121 -67.611684 -44.147059 29.537475 136.618274 -66.847578 -108.265833 0.007988 -19.131378 -13.172338 9.550420 1.515778 -2.479762 46.975137 7.383306 -5.625103 -145.997727 53.860536 -130.923117 15.877490 17.185478 -23.603223 
-63.646507 185.911026 87.256653 -103.246862 1.674205 87.002637 23.333126 5.152547 -6.179206 -5.864572 -5.455394 25.446124 -0.892126 5.046758 -26.731002 nan nan nan -21.837425 -10.187302 -26.815615 2.068212 -8.035128 37.316922 8.192429 0.479834 -15.471732 nan nan nan -5.489924 -2.543605 10.154178 4.343772 -6.733246 5.179726 0.430448 -1.517215 1.533418 2.969105 -7.038823 21.224306 12.372870 -10.215514 10.975951 -11.271223 -12.312538 0.205855 -67.437832 -44.141712 29.254974 136.722414 -66.712042 -108.083614 -0.182625 -19.203845 -12.947746 9.520696 1.816900 -2.322814 46.404707 7.991798 -6.296578 -145.106577 53.305244 -129.954068 16.297417 16.883894 -22.649068 
-63.650173 185.212021 87.462158 -103.911479 1.759883 87.039759 22.919107 5.268080 -6.002246 -5.678048 -4.901207 25.311176 -0.734514 5.251860 -26.691079 nan nan nan -21.701365 -10.118490 -26.702289 1.926080 -7.668338 36.045741 8.423580 0.497856 -14.124441 nan nan nan -5.474451 -2.590727 10.061894 4.437389 -6.818962 5.168137 0.467423 -1.489600 1.381623 2.938358 -7.235417 21.530858 12.342454 -10.125098 10.793558 -11.145573 -12.450406 0.121672 -67.480683 -44.065317 29.356226 136.692252 -66.602913 -107.803276 -0.214476 -19.336764 -13.263241 9.433170 1.842019 -2.464886 46.101927 8.583570 -6.628376 -144.321364 52.911517 -128.955309 16.066067 16.491973 -21.983267 
-63.619389 184.506912 87.665680 -104.512789 1.856073 87.071450 22.502911 5.327493 -5.890185 -5.527410 -4.474790 25.180073 -0.571582 5.529158 -26.661864 nan nan nan -21.560434 -10.087483 -26.606996 1.827511 -7.280269 34.774179 8.614864 0.406140 -12.780367 nan nan nan -5.478580 -2.557742 10.043347 4.601516 -6.921015 5.129149 0.497779 -1.485583 1.320634 2.794868 -7.597415 21.489306 12.314502 -10.098417 10.882449 -11.035345 -12.677984 0.061929 -67.558019 -44.027564 29.646282 136.471964 -66.442946 -107.405378 1.165893 -18.544638 -14.002438 9.569140 1.866222 -2.750591 45.548615 9.162191 -6.793845 -143.571507 52.504616 -127.959880 14.257447 15.733744 -21.274501 
-63.588551 183.795151 87.871475 -105.011779 1.985290 87.124685 22.099315 5.351121 -5.825270 -5.310029 -4.049230 25.027757 -0.419108 5.660079 -26.659314 nan nan nan -21.457183 -10.004183 -26.403423 1.733880 -7.070328 33.373533 8.782129 0.299483 -11.446300 nan nan nan -5.508573 -2.550515 9.994812 4.805643 -7.004088 5.155105 0.510261 -1.463191 1.316897 2.849331 -7.946169 21.222568 12.414680 -10.269731 11.063558 -10.894196 -12.821132 -0.060413 -67.821663 -44.223316 30.165536 136.132173 -66.349746 -106.890165 1.869777 -18.218585 -14.467542 9.709817 1.821841 -3.224955 44.947429 9.625116 -6.809581 -142.704662 52.082589 -126.844661 12.882026 15.191740 -20.640892 
-63.608517 183.027252 88.085434 -105.456033 2.127148 87.067365 21.665352 5.379584 -5.590640 -5.007661 -3.635321 24.792582 -0.251326 5.660947 -26.651541 nan nan nan -21.417182 -9.976049 -25.976264 1.621885 -6.981370 31.904044 8.944982 0.325918 -9.960187 nan nan nan -5.541495 -2.577021 9.912919 5.020123 -7.099892 5.270199 0.624848 -1.403715 1.574150 3.142028 -8.117646 20.840516 12.412694 -10.683085 10.683427 -10.639053 -13.175219 -0.451677 -68.096612 -44.364846 30.545733 135.735359 -66.220124 -106.237038 1.468526 -18.674017 -13.702898 9.590603 1.929902 -3.950605 44.295775 9.821371 -7.112393 -141.776932 51.695871 -125.532340 13.323572 14.962151 -19.154733 
-63.663761 182.265625 88.328644 -105.971462 2.285303 87.031765 21.242292 5.444300 -5.284390 -4.727353 -3.316891 24.468907 -0.213801 5.665136 -26.632421 nan nan nan -21.341276 -9.928103 -25.585587 1.492420 -6.914055 30.412986 9.204599 0.428727 -8.379939 nan nan nan -5.426166 -2.695219 9.952797 5.114872 -7.212776 5.028446 0.754337 -1.349198 1.613622 3.237267 -8.050050 21.255727 12.348956 -10.735793 10.587415 -10.479718 -13.751056 -0.482891 -67.741967 -44.246341 30.153801 135.768911 -66.032310 -105.578042 0.133504 -19.776020 -12.598946 9.549552 2.339380 -4.099261 43.593234 10.008093 -7.851164 -140.863523 51.412033 -123.923955 14.740850 14.973340 -16.795998 
